<svg xmlns="http://www.w3.org/2000/svg" viewBox="0 0 62.83 54.94"><defs><style>.cls-1{fill:#fff;}.cls-2{fill:#3cf;}.cls-3{fill:#09f;}.cls-4{fill:none;stroke-width:3.32px;}.cls-4,.cls-5{stroke:#000;stroke-miterlimit:10;}.cls-5{fill:#caf8ff;stroke-width:2.95px;}</style></defs><g id="Layer_2" data-name="Layer 2"><g id="Layer_1-2" data-name="Layer 1"><rect class="cls-1" x="14.96" y="7.06" width="47.16" height="45.26" rx="4.78" transform="translate(8.84 68.23) rotate(-90)"/><circle class="cls-1" cx="28.47" cy="17.12" r="1.57"/><polygon class="cls-2" points="42.26 33.63 59.6 20.29 59.6 39.14 42.26 39.14 42.26 33.63"/><polygon class="cls-2" points="31.13 51.7 27.6 42.28 39.12 42.28 39.12 51.7 31.13 51.7"/><path class="cls-3" d="M17.48,48.5V42.28h6.76l3.53,9.43H20.69A3.21,3.21,0,0,1,17.48,48.5Z"/><path class="cls-3" d="M56.39,51.71H42.26V42.28H59.6V48.5A3.21,3.21,0,0,1,56.39,51.71Z"/><path class="cls-3" d="M59.6,10.89v5.43L42.26,29.66v-22H56.39A3.21,3.21,0,0,1,59.6,10.89Z"/><rect class="cls-2" x="12.57" y="12.59" width="31.45" height="21.64" transform="translate(4.89 51.71) rotate(-90)"/><path d="M39.12,7.69V39.14H14.33V48.5a6.36,6.36,0,0,0,6.36,6.35h35.7a6.36,6.36,0,0,0,6.35-6.35V10.89a6.36,6.36,0,0,0-6.35-6.35H39.12ZM59.6,42.28V48.5a3.21,3.21,0,0,1-3.21,3.21H42.26V42.28Zm-20.48,0v9.43h-8L27.6,42.28Zm-14.88,0,3.53,9.43H20.69a3.21,3.21,0,0,1-3.21-3.21V42.28ZM59.6,39.14H42.26V33.63L59.6,20.29ZM56.39,7.69a3.21,3.21,0,0,1,3.21,3.2v5.43L42.26,29.66v-22Z"/><rect class="cls-4" x="14.96" y="7.06" width="47.16" height="45.26" rx="4.78" transform="translate(8.84 68.23) rotate(-90)"/><path class="cls-5" d="M16.53,26.21l13.17,3A1.53,1.53,0,0,0,31.39,27L17.87,2.27a1.54,1.54,0,0,0-2.69,0L1.67,27a1.53,1.53,0,0,0,1.69,2.23Z"/></g></g></svg>