<svg xmlns="http://www.w3.org/2000/svg" viewBox="0 0 57.03 62.4"><defs><style>.cls-1{fill:#fff0b3;}.cls-2{fill:#ffc400;}.cls-2,.cls-3{stroke:#000;stroke-linejoin:round;stroke-width:2.76px;}.cls-3{fill:#fce354;}</style></defs><g id="Layer_2" data-name="Layer 2"><g id="Layer_1-2" data-name="Layer 1"><rect class="cls-1" x="7.13" y="12.51" width="48.29" height="48.29" rx="4.89" transform="translate(62.56 73.3) rotate(-180)"/><path class="cls-1" d="M7,7.64A16,16,0,0,1,18.19,2.86h.22A16.08,16.08,0,0,1,33.6,24.19a15.84,15.84,0,0,1-2.51,4.62,16.09,16.09,0,0,1-8.67,5.69,1.3,1.3,0,0,0-.81.62l-2.32,4.2h0a1,1,0,0,1-1.74,0h0l-2.32-4.21a1.35,1.35,0,0,0-.81-.61,16.14,16.14,0,0,1-8.64-5.65A16.07,16.07,0,0,1,7,7.64Z"/><circle class="cls-1" cx="18.4" cy="25.37" r="1.61"/><path class="cls-1" d="M16.81,11.7v9.65a.8.8,0,0,0,.8.81h1.61a.8.8,0,0,0,.8-.81V11.7a.8.8,0,0,0-.8-.8H17.61A.8.8,0,0,0,16.81,11.7Zm1.61,8.85h0"/><path d="M.73,18.94A17.67,17.67,0,0,0,4.5,29.85c.32.41.67.81,1,1.19V55.9A6.51,6.51,0,0,0,12,62.4h38.5A6.5,6.5,0,0,0,57,55.9V17.4a6.5,6.5,0,0,0-6.5-6.5H34.18a17.88,17.88,0,0,0-3.33-4.54,17.71,17.71,0,0,0-25,.14A17.56,17.56,0,0,0,.73,18.94Zm35.36-.14a17.88,17.88,0,0,0-.66-4.69H41v24.1H21.73L22.94,36a17.76,17.76,0,0,0,9.42-6.23,17.65,17.65,0,0,0,3.73-11ZM41,41.43V59.19H21.65L35.3,41.43Zm12.87-3.22H44.16V24.48l9.66,3.61Zm0-20.81v7.26L44.16,21V14.11h6.37A3.3,3.3,0,0,1,53.82,17.4ZM50.53,59.19H44.16V41.43h9.66V55.9A3.3,3.3,0,0,1,50.53,59.19ZM8.74,55.9V41.43h22.5L17.59,59.19H12A3.3,3.3,0,0,1,8.74,55.9Zm0-17.69V33.73A17.35,17.35,0,0,0,13.88,36l1.21,2.18ZM4,18.94A14.46,14.46,0,0,1,18.21,4.47h.2A14.44,14.44,0,0,1,32.87,18.82a14.16,14.16,0,0,1-.79,4.84A14.51,14.51,0,0,1,22,33a2.91,2.91,0,0,0-1.8,1.36l0,0-1.79,3.24L16.6,34.3A2.92,2.92,0,0,0,14.8,33,14.43,14.43,0,0,1,4,18.94Z"/><path class="cls-2" d="M30.42,1.38h-24A5.07,5.07,0,0,0,1.38,6.46v22.2a5.07,5.07,0,0,0,5.08,5.07h5.7L18.4,40l6.25-6.25h5.77a5.08,5.08,0,0,0,5.08-5.07V6.46A5.08,5.08,0,0,0,30.42,1.38Z"/><circle class="cls-3" cx="18.11" cy="17.4" r="7.97"/></g></g></svg>